<?xml version="1.0" encoding="UTF-8" standalone="no"?>
<svg width="43px" height="43px" viewBox="0 0 43 43" version="1.1" xmlns="http://www.w3.org/2000/svg" xmlns:xlink="http://www.w3.org/1999/xlink" xmlns:sketch="http://www.bohemiancoding.com/sketch/ns">
    <!-- Generator: Sketch 3.3.3 (12072) - http://www.bohemiancoding.com/sketch -->
    <title>boss</title>
    <desc>Created with Sketch.</desc>
    <defs>
        <path id="path-1" d="M0,47.5 L47.5,47.5 L47.5,0 L0,0 L0,47.5 L0,47.5 Z"></path>
    </defs>
    <g id="Trivia" stroke="none" stroke-width="1" fill="none" fill-rule="evenodd" sketch:type="MSPage">
        <g id="Assets" sketch:type="MSArtboardGroup" transform="translate(-732.000000, -25.000000)">
            <g id="boss" sketch:type="MSLayerGroup" transform="translate(730.000000, 23.000000)">
                <g id="g10" transform="translate(23.750000, 23.750000) scale(1, -1) translate(-23.750000, -23.750000) ">
                    <g id="g12">
                        <g id="g14-Clipped">
                            <mask id="mask-2" sketch:name="path18" fill="white">
                                <use xlink:href="#path-1"></use>
                            </mask>
                            <g id="path18"></g>
                            <g id="g14" mask="url(#mask-2)">
                                <g transform="translate(1.250000, 2.500000)">
                                    <g id="g20" transform="translate(1.250000, 0.000000)">
                                        <path d="M42.5,21.25 C42.5,9.51375 32.98625,0 21.25,0 C9.51375,0 0,9.51375 0,21.25 C0,32.98625 9.51375,42.5 21.25,42.5 C32.98625,42.5 42.5,32.98625 42.5,21.25" id="path22" fill="#FFCC4D" sketch:type="MSShapeGroup"></path>
                                    </g>
                                    <g id="g24" transform="translate(0.300250, 18.728000)">
                                        <path d="M1.25,11.25 C1.55,10.95125 3.04625,10.0525 3.34625,9.15625 C3.64625,8.26 4.24625,3.17625 6.04375,1.68 C7.89875,0.13875 14.89,0.7125 16.23,1.38 C19.22625,2.87375 19.59375,7.04375 20.12375,9.15625 C20.4225,10.3525 22.22,10.3525 22.22,10.3525 C22.22,10.3525 24.01875,10.3525 24.3175,9.1575 C24.8475,7.04375 25.2175,2.87375 28.21125,1.38125 C29.5525,0.7125 36.54375,0.13875 38.40125,1.68 C40.195,3.17625 40.795,8.26 41.095,9.1575 C41.3925,10.05375 42.89125,10.95125 43.19125,11.25 C43.4925,11.54875 43.4925,12.745 43.19125,13.045 C42.5925,13.6425 35.52375,14.175 27.9125,13.34375 C26.39375,13.1775 25.81625,12.745 22.22,12.745 C18.62625,12.745 18.04625,13.1775 16.52875,13.3425 C8.92,14.175 1.84875,13.6425 1.25,13.045 C0.95125,12.745 0.95125,11.54875 1.25,11.25" id="path26" fill="#292F33" sketch:type="MSShapeGroup"></path>
                                    </g>
                                    <g id="g28" transform="translate(10.418750, 6.713875)">
                                        <path d="M23.75,7.5 C23.5275,7.70125 23.195,7.71375 22.95625,7.53625 C22.9075,7.5 18.05375,3.91125 12.08125,3.91125 C6.12375,3.91125 1.25375,7.5 1.20625,7.53625 C0.9675,7.71375 0.635,7.69875 0.4125,7.5 C0.19125,7.3 0.14125,6.97 0.295,6.715 C0.45625,6.44625 4.31625,0.16125 12.08125,0.16125 C19.84625,0.16125 23.7075,6.44625 23.8675,6.715 C24.02125,6.97125 23.9725,7.3 23.75,7.5" id="path30" fill="#664500" sketch:type="MSShapeGroup"></path>
                                    </g>
                                </g>
                            </g>
                        </g>
                    </g>
                </g>
            </g>
        </g>
    </g>
</svg>