<?xml version="1.0" encoding="UTF-8" standalone="no"?>
<svg width="44px" height="43px" viewBox="0 0 44 43" version="1.1" xmlns="http://www.w3.org/2000/svg" xmlns:xlink="http://www.w3.org/1999/xlink" xmlns:sketch="http://www.bohemiancoding.com/sketch/ns">
    <!-- Generator: Sketch 3.3.3 (12072) - http://www.bohemiancoding.com/sketch -->
    <title>decepcion</title>
    <desc>Created with Sketch.</desc>
    <defs>
        <path id="path-1" d="M0,47.5 L47.5,47.5 L47.5,0 L0,0 L0,47.5 L0,47.5 Z"></path>
    </defs>
    <g id="Trivia" stroke="none" stroke-width="1" fill="none" fill-rule="evenodd" sketch:type="MSPage">
        <g id="Assets" sketch:type="MSArtboardGroup" transform="translate(-323.000000, -25.000000)">
            <g id="decepcion" sketch:type="MSLayerGroup" transform="translate(321.250000, 23.000000)">
                <g id="g10" transform="translate(23.750000, 23.750000) scale(1, -1) translate(-23.750000, -23.750000) ">
                    <g id="g12">
                        <g id="g14-Clipped">
                            <mask id="mask-2" sketch:name="path18" fill="white">
                                <use xlink:href="#path-1"></use>
                            </mask>
                            <g id="path18"></g>
                            <g id="g14" mask="url(#mask-2)">
                                <g transform="translate(2.500000, 2.500000)">
                                    <g id="g20">
                                        <path d="M42.5,21.25 C42.5,9.51375 32.98625,0 21.25,0 C9.515,0 0,9.51375 0,21.25 C0,32.985 9.515,42.5 21.25,42.5 C32.98625,42.5 42.5,32.985 42.5,21.25" id="path22" fill="#FFCC4D" sketch:type="MSShapeGroup"></path>
                                    </g>
                                    <g id="g24" transform="translate(9.140625, 16.735250)">
                                        <path d="M11.25,5 C11.03,5.17875 10.71625,5.18375 10.4875,5.0175 C10.47125,5.005 8.91125,3.89 5.86,3.89 C2.80875,3.89 1.2475,5.005 1.23375,5.015 C1.00625,5.185 0.69125,5.18125 0.47,5.00375 C0.2475,4.82625 0.1725,4.52125 0.2875,4.26125 C0.36375,4.0925 2.1625,0.14 5.86,0.14 C9.5575,0.14 11.35625,4.0925 11.43125,4.26125 C11.545,4.52 11.47,4.8225 11.25,5" id="path26" fill="#664500" sketch:type="MSShapeGroup"></path>
                                    </g>
                                    <g id="g28" transform="translate(21.640625, 16.735250)">
                                        <path d="M11.25,5 C11.03,5.17875 10.7175,5.185 10.4875,5.0175 C10.4725,5.005 8.91125,3.89 5.86,3.89 C2.80875,3.89 1.24625,5.005 1.23375,5.015 C1.00625,5.185 0.6925,5.18125 0.47,5.00375 C0.2475,4.82625 0.1725,4.52125 0.2875,4.26125 C0.3625,4.0925 2.1625,0.14 5.86,0.14 C9.5575,0.14 11.35625,4.0925 11.43125,4.26125 C11.545,4.52 11.47125,4.8225 11.25,5" id="path30" fill="#664500" sketch:type="MSShapeGroup"></path>
                                    </g>
                                    <g id="g32" transform="translate(15.000000, 8.750000)">
                                        <path d="M11.25,0 L1.25,0 C0.56,0 0,0.55875 0,1.25 C0,1.94125 0.56,2.5 1.25,2.5 L11.25,2.5 C11.94125,2.5 12.5,1.94125 12.5,1.25 C12.5,0.55875 11.94125,0 11.25,0" id="path34" fill="#664500" sketch:type="MSShapeGroup"></path>
                                    </g>
                                    <g id="g36" transform="translate(5.000000, 26.250000)">
                                        <path d="M1.25,0 C0.56,0 0,0.56 0,1.25 C0,1.93875 0.55625,2.4975 1.245,2.5 C1.43875,2.5025 5.705,2.6075 9,7 C9.41375,7.55 10.1975,7.665 10.75,7.25 C11.3025,6.83625 11.41375,6.0525 11,5.5 C6.9225,0.0625 1.48,0 1.25,0" id="path38" fill="#664500" sketch:type="MSShapeGroup"></path>
                                    </g>
                                    <g id="g40" transform="translate(25.000000, 26.250000)">
                                        <path d="M11.25,0 C11.02,0 5.57875,0.0625 1.5,5.5 C1.085,6.0525 1.1975,6.83625 1.75,7.25 C2.3025,7.66625 3.085,7.5525 3.5,7 C6.8,2.59875 11.07625,2.50125 11.2575,2.5 C11.945,2.4925 12.5,1.93 12.49625,1.24375 C12.4925,0.555 11.9375,0 11.25,0" id="path42" fill="#664500" sketch:type="MSShapeGroup"></path>
                                    </g>
                                </g>
                            </g>
                        </g>
                    </g>
                </g>
            </g>
        </g>
    </g>
</svg>