<?xml version="1.0" encoding="UTF-8" standalone="no"?>
<svg width="44px" height="43px" viewBox="0 0 44 43" version="1.1" xmlns="http://www.w3.org/2000/svg" xmlns:xlink="http://www.w3.org/1999/xlink" xmlns:sketch="http://www.bohemiancoding.com/sketch/ns">
    <!-- Generator: Sketch 3.3.3 (12072) - http://www.bohemiancoding.com/sketch -->
    <title>desesperado</title>
    <desc>Created with Sketch.</desc>
    <defs>
        <path id="path-1" d="M0,47.5 L47.5,47.5 L47.5,0 L0,0 L0,47.5 L0,47.5 Z"></path>
    </defs>
    <g id="Trivia" stroke="none" stroke-width="1" fill="none" fill-rule="evenodd" sketch:type="MSPage">
        <g id="Assets" sketch:type="MSArtboardGroup" transform="translate(-187.000000, -25.000000)">
            <g id="desesperado" sketch:type="MSLayerGroup" transform="translate(185.250000, 23.000000)">
                <g id="g10" transform="translate(23.750000, 23.750000) scale(1, -1) translate(-23.750000, -23.750000) ">
                    <g id="g12">
                        <g id="g14-Clipped">
                            <mask id="mask-2" sketch:name="path18" fill="white">
                                <use xlink:href="#path-1"></use>
                            </mask>
                            <g id="path18"></g>
                            <g id="g14" mask="url(#mask-2)">
                                <g transform="translate(2.500000, 2.500000)">
                                    <g id="g20">
                                        <path d="M42.5,21.25 C42.5,9.51375 32.98625,0 21.25,0 C9.51375,0 0,9.51375 0,21.25 C0,32.98625 9.51375,42.5 21.25,42.5 C32.98625,42.5 42.5,32.98625 42.5,21.25" id="path22" fill="#FFCC4D" sketch:type="MSShapeGroup"></path>
                                    </g>
                                    <g id="g24" transform="translate(7.500000, 5.625000)">
                                        <path d="M13.75,11.25 C2.08375,11.25 0.64375,0.8075 0.63,0.7025 C0.6025,0.49 0.6875,0.27875 0.85375,0.14125 C0.96625,0.04875 1.1075,0 1.25,0 C1.31625,0 1.3825,0.01125 1.4475,0.03125 C1.52125,0.05625 8.9075,2.5 13.75,2.5 C20.74375,2.5 25.93125,0.08375 25.9825,0.06 C26.18375,-0.03625 26.43125,-0.015 26.61625,0.11875 C26.8,0.2525 26.89875,0.47625 26.87,0.7025 C26.85625,0.8075 25.41625,11.25 13.75,11.25" id="path26" fill="#664500" sketch:type="MSShapeGroup"></path>
                                    </g>
                                    <g id="g28" transform="translate(23.750000, 31.250000)">
                                        <path d="M11.25,0 C4.3075,0 1.4975,5.45875 1.38125,5.69125 C1.0725,6.30875 1.32375,7.06 1.94125,7.36875 C2.5575,7.675 3.30625,7.4275 3.61625,6.81375 C3.70875,6.6325 5.89125,2.5 11.25,2.5 C11.94125,2.5 12.5,1.94 12.5,1.25 C12.5,0.56 11.94125,0 11.25,0" id="path30" fill="#664500" sketch:type="MSShapeGroup"></path>
                                    </g>
                                    <g id="g32" transform="translate(6.250000, 31.250000)">
                                        <path d="M1.25,0 C0.56,0 0,0.56 0,1.25 C0,1.94 0.56,2.5 1.25,2.5 C7.60375,2.5 8.745,6.4 8.79125,6.56625 C8.9725,7.22625 9.65625,7.62625 10.315,7.4525 C10.9775,7.27875 11.37875,6.61125 11.2125,5.94625 C11.15125,5.70375 9.63,0 1.25,0" id="path34" fill="#664500" sketch:type="MSShapeGroup"></path>
                                    </g>
                                    <g id="g36" transform="translate(13.750000, 12.500000)">
                                        <path d="M7.5,2.5 C12.5,2.5 15,0 15,0 L0,0 C0,0 2.5,2.5 7.5,2.5" id="path38" fill="#CCD6DD" sketch:type="MSShapeGroup"></path>
                                    </g>
                                    <g id="g40" transform="translate(3.751250, 20.000000)">
                                        <path d="M2.5,0 C2.12,0 1.745,0.1725 1.49875,0.5 C1.085,1.0525 1.19625,1.83625 1.74875,2.25 C1.9275,2.38375 5.4375,4.9775 10.31875,5.915 C7.225,7.46625 3.79125,7.5 3.7475,7.5 C3.0575,7.50125 2.49875,8.0625 2.5,8.75125 C2.5,9.44125 3.05875,10 3.74875,10 C4.025,10 10.56375,9.9525 14.6325,5.88375 C14.99,5.52625 15.0975,4.98875 14.90375,4.52125 C14.71,4.055 14.25375,3.75 13.74875,3.75 C7.9825,3.75 3.295,0.285 3.24875,0.25 C3.02375,0.08125 2.76,0 2.5,0" id="path42" fill="#664500" sketch:type="MSShapeGroup"></path>
                                    </g>
                                    <g id="g44" transform="translate(23.748750, 20.001250)">
                                        <path d="M12.5,0 C12.24,0 11.9775,0.08 11.7525,0.2475 C11.705,0.28375 6.98875,3.74875 1.25125,3.74875 C0.74625,3.74875 0.28875,4.05375 0.09625,4.52 C-0.0975,4.9875 0.01,5.525 0.3675,5.8825 C4.4375,9.95125 10.975,9.99875 11.25125,9.99875 C11.94125,9.99875 12.49875,9.44 12.5,8.75 C12.50125,8.06125 11.9425,7.5 11.25375,7.49875 C11.20875,7.49875 7.775,7.465 4.68125,5.91375 C9.5625,4.97625 13.0725,2.3825 13.25125,2.24875 C13.8025,1.835 13.915,1.05375 13.5025,0.5 C13.25625,0.17375 12.88125,0 12.5,0" id="path46" fill="#664500" sketch:type="MSShapeGroup"></path>
                                    </g>
                                </g>
                            </g>
                        </g>
                    </g>
                </g>
            </g>
        </g>
    </g>
</svg>