<?xml version="1.0" encoding="UTF-8" standalone="no"?>
<svg width="44px" height="43px" viewBox="0 0 44 43" version="1.1" xmlns="http://www.w3.org/2000/svg" xmlns:xlink="http://www.w3.org/1999/xlink" xmlns:sketch="http://www.bohemiancoding.com/sketch/ns">
    <!-- Generator: Sketch 3.3.3 (12072) - http://www.bohemiancoding.com/sketch -->
    <title>grin</title>
    <desc>Created with Sketch.</desc>
    <defs>
        <path id="path-1" d="M0,47.5 L47.5,47.5 L47.5,0 L0,0 L0,47.5 L0,47.5 Z"></path>
    </defs>
    <g id="Trivia" stroke="none" stroke-width="1" fill="none" fill-rule="evenodd" sketch:type="MSPage">
        <g id="Assets" sketch:type="MSArtboardGroup" transform="translate(-663.000000, -25.000000)">
            <g id="grin" sketch:type="MSLayerGroup" transform="translate(661.250000, 23.000000)">
                <g id="g10" transform="translate(23.750000, 23.750000) scale(1, -1) translate(-23.750000, -23.750000) ">
                    <g id="g12">
                        <g id="g14-Clipped">
                            <mask id="mask-2" sketch:name="path18" fill="white">
                                <use xlink:href="#path-1"></use>
                            </mask>
                            <g id="path18"></g>
                            <g id="g14" mask="url(#mask-2)">
                                <g transform="translate(2.500000, 2.500000)">
                                    <g id="g20" stroke-width="1" fill="none" sketch:type="MSLayerGroup">
                                        <path d="M42.5,21.25 C42.5,9.51375 32.98625,0 21.25,0 C9.515,0 0,9.51375 0,21.25 C0,32.985 9.515,42.5 21.25,42.5 C32.98625,42.5 42.5,32.985 42.5,21.25" id="path22" fill="#FFCC4D" sketch:type="MSShapeGroup"></path>
                                    </g>
                                    <g id="g24" stroke-width="1" fill="none" sketch:type="MSLayerGroup" transform="translate(5.000000, 10.000000)">
                                        <path d="M27.5,0 L5,0 C2.25,0 0,2.25 0,5 L0,5 C0,7.75 2.25,10 5,10 L27.5,10 C30.25,10 32.5,7.75 32.5,5 L32.5,5 C32.5,2.25 30.25,0 27.5,0" id="path26" fill="#664500" sketch:type="MSShapeGroup"></path>
                                    </g>
                                    <path d="M28.75,17.5 L22.5,17.5 L22.5,12.5 L28.75,12.5 L28.75,17.5 L28.75,17.5 Z" id="path28" fill="#F5F8FA" sketch:type="MSShapeGroup"></path>
                                    <path d="M13.75,12.5 L20,12.5 L20,17.5 L13.75,17.5 L13.75,12.5 L13.75,12.5 Z" id="path30" fill="#F5F8FA" sketch:type="MSShapeGroup"></path>
                                    <g id="g32" stroke-width="1" fill="none" sketch:type="MSLayerGroup" transform="translate(7.500000, 12.500000)">
                                        <path d="M3.75,5 L2.5,5 C1.12,5 0,3.88 0,2.5 C0,1.12 1.12,0 2.5,0 L3.75,0 L3.75,5 L3.75,5 Z" id="path34" fill="#F5F8FA" sketch:type="MSShapeGroup"></path>
                                    </g>
                                    <g id="g36" stroke-width="1" fill="none" sketch:type="MSLayerGroup" transform="translate(31.250000, 12.500000)">
                                        <path d="M1.25,5 L0,5 L0,0 L1.25,0 C2.63,0 3.75,1.12 3.75,2.5 C3.75,3.88 2.63,5 1.25,5" id="path38" fill="#F5F8FA" sketch:type="MSShapeGroup"></path>
                                    </g>
                                    <g id="g40" stroke-width="1" fill="none" sketch:type="MSLayerGroup" transform="translate(8.750000, 21.250000)">
                                        <path d="M10,1.25 C9.47625,1.25 8.98875,1.58125 8.81375,2.105 C8.56,2.85375 7.5425,5 6.25,5 C4.9225,5 3.89,2.71625 3.68625,2.105 C3.4675,1.45 2.7625,1.095 2.105,1.315 C1.45,1.5325 1.095,2.24 1.31375,2.895 C1.47125,3.36625 2.94375,7.5 6.25,7.5 C9.55625,7.5 11.02875,3.36625 11.18625,2.895 C11.405,2.24 11.05,1.5325 10.395,1.315 C10.26375,1.27125 10.13125,1.25 10,1.25" id="path42" fill="#664500" sketch:type="MSShapeGroup"></path>
                                    </g>
                                    <g id="g44" stroke-width="1" fill="none" sketch:type="MSLayerGroup" transform="translate(22.500000, 21.250000)">
                                        <path d="M8.75,1.25 C8.22625,1.25 7.73875,1.58125 7.565,2.105 C7.31125,2.85375 6.29125,5 5,5 C3.6725,5 2.63875,2.71625 2.435,2.105 C2.21625,1.45 1.515,1.095 0.855,1.315 C0.2,1.5325 -0.15375,2.24 0.065,2.895 C0.22125,3.36625 1.69375,7.5 5,7.5 C8.30625,7.5 9.77875,3.36625 9.935,2.895 C10.15375,2.24 9.8,1.5325 9.145,1.315 C9.01375,1.27125 8.88125,1.25 8.75,1.25" id="path46" fill="#664500" sketch:type="MSShapeGroup"></path>
                                    </g>
                                </g>
                            </g>
                        </g>
                    </g>
                </g>
            </g>
        </g>
    </g>
</svg>