<?xml version="1.0" encoding="UTF-8" standalone="no"?>
<svg width="45px" height="45px" viewBox="0 0 45 45" version="1.1" xmlns="http://www.w3.org/2000/svg" xmlns:xlink="http://www.w3.org/1999/xlink" xmlns:sketch="http://www.bohemiancoding.com/sketch/ns">
    <!-- Generator: Sketch 3.3.3 (12072) - http://www.bohemiancoding.com/sketch -->
    <title>moco</title>
    <desc>Created with Sketch.</desc>
    <defs>
        <path id="path-1" d="M0,47.5 L47.5,47.5 L47.5,0 L0,0 L0,47.5 L0,47.5 Z"></path>
    </defs>
    <g id="Trivia" stroke="none" stroke-width="1" fill="none" fill-rule="evenodd" sketch:type="MSPage">
        <g id="Assets" sketch:type="MSArtboardGroup" transform="translate(-255.000000, -25.000000)">
            <g id="moco" sketch:type="MSLayerGroup" transform="translate(253.250000, 23.000000)">
                <g id="g10" transform="translate(23.750000, 23.750000) scale(1, -1) translate(-23.750000, -23.750000) ">
                    <g id="g12">
                        <g id="g14-Clipped">
                            <mask id="mask-2" sketch:name="path18" fill="white">
                                <use xlink:href="#path-1"></use>
                            </mask>
                            <g id="path18"></g>
                            <g id="g14" mask="url(#mask-2)">
                                <g transform="translate(2.500000, 1.250000)">
                                    <g id="g20" transform="translate(0.000000, 1.250000)">
                                        <path d="M42.5,21.25 C42.5,9.51375 32.98625,0 21.25,0 C9.51375,0 0,9.51375 0,21.25 C0,32.98625 9.51375,42.5 21.25,42.5 C32.98625,42.5 42.5,32.98625 42.5,21.25" id="path22" fill="#FFCC4D" sketch:type="MSShapeGroup"></path>
                                    </g>
                                    <g id="g24" transform="translate(14.356750, 7.651375)">
                                        <path d="M13.75,1.25 C13.735,1.305 12.3175,6.72375 6.89375,6.72375 C1.4675,6.72375 0.05,1.305 0.0375,1.25 C-0.02875,0.98375 0.09125,0.71125 0.32625,0.57 C0.56125,0.43 0.8675,0.4625 1.07125,0.645 C1.08375,0.65375 2.33875,1.72375 6.89375,1.72375 C11.38,1.72375 12.665,0.68625 12.71375,0.645 C12.8325,0.5325 12.9875,0.47375 13.14375,0.47375 C13.24875,0.47375 13.355,0.5 13.45125,0.55375 C13.69625,0.69375 13.81875,0.9775 13.75,1.25" id="path26" fill="#664500" sketch:type="MSShapeGroup"></path>
                                    </g>
                                    <g id="g28" transform="translate(7.128250, 19.252375)">
                                        <path d="M11.25,3.75 C11.23375,3.73875 9.6725,2.6225 6.62125,2.6225 C3.56875,2.6225 2.00875,3.73875 1.9975,3.7475 C1.75375,3.92875 1.41375,3.9125 1.1925,3.70125 C0.97125,3.4925 0.9325,3.15375 1.10125,2.90125 C1.1775,2.7875 2.995,0.1225 6.62125,0.1225 C10.2475,0.1225 12.06625,2.7875 12.14125,2.90125 C12.31,3.1525 12.27125,3.4875 12.0525,3.6975 C11.8325,3.91 11.4925,3.92875 11.25,3.75" id="path30" fill="#664500" sketch:type="MSShapeGroup"></path>
                                    </g>
                                    <g id="g32" transform="translate(22.930875, 19.200500)">
                                        <path d="M11.25,3.75 C11.03125,3.96125 10.69125,3.9825 10.44625,3.8025 C10.4325,3.79 8.87,2.675 5.81875,2.675 C2.7675,2.675 1.20625,3.79 1.19375,3.8 C0.9525,3.98125 0.61125,3.96375 0.39,3.75375 C0.16875,3.54375 0.13125,3.20625 0.29875,2.9525 C0.375,2.83875 2.1925,0.175 5.81875,0.175 C9.445,0.175 11.26375,2.83875 11.33875,2.9525 C11.5075,3.205 11.46875,3.54 11.25,3.75" id="path34" fill="#664500" sketch:type="MSShapeGroup"></path>
                                    </g>
                                    <g id="g36" transform="translate(27.501250, 25.000000)">
                                        <path d="M10,0 C9.61875,0 9.24375,0.1725 8.99875,0.5 C5.69875,4.90125 1.4225,4.99875 1.24125,5 C0.55375,5.0075 -0.00125,5.57 0.0025,6.25625 C0.00625,6.945 0.56125,7.5 1.24875,7.5 C1.47875,7.5 6.92,7.4375 10.99875,2 C11.41375,1.4475 11.30125,0.66375 10.74875,0.25 C10.52375,0.08125 10.26125,0 10,0" id="path38" fill="#664500" sketch:type="MSShapeGroup"></path>
                                    </g>
                                    <g id="g40" transform="translate(3.748750, 25.000000)">
                                        <path d="M1.25,0 C0.99,0 0.72625,0.08125 0.50125,0.25 C-0.05125,0.66375 -0.1625,1.4475 0.25125,2 C4.32875,7.4375 9.77125,7.5 10.00125,7.5 C10.69125,7.5 11.25125,6.94 11.25125,6.25 C11.25125,5.56125 10.695,5.0025 10.00625,5 C9.8125,4.9975 5.54625,4.8925 2.25125,0.5 C2.005,0.1725 1.63,0 1.25,0" id="path42" fill="#664500" sketch:type="MSShapeGroup"></path>
                                    </g>
                                    <g id="g44" transform="translate(27.500000, 0.000000)">
                                        <path d="M0,16.25 C7.76375,16.25 16.25,11.25 16.25,5 C16.25,0 12.5,0 12.5,0 C2.5,0 11.25,11.25 0,16.25" id="path46" fill="#5DADEC" sketch:type="MSShapeGroup"></path>
                                    </g>
                                </g>
                            </g>
                        </g>
                    </g>
                </g>
            </g>
        </g>
    </g>
</svg>