<?xml version="1.0" encoding="UTF-8" standalone="no"?>
<svg width="44px" height="43px" viewBox="0 0 44 43" version="1.1" xmlns="http://www.w3.org/2000/svg" xmlns:xlink="http://www.w3.org/1999/xlink" xmlns:sketch="http://www.bohemiancoding.com/sketch/ns">
    <!-- Generator: Sketch 3.3.3 (12072) - http://www.bohemiancoding.com/sketch -->
    <title>neutral</title>
    <desc>Created with Sketch.</desc>
    <defs>
        <path id="path-1" d="M0,47.5 L47.5,47.5 L47.5,0 L0,0 L0,47.5 L0,47.5 Z"></path>
    </defs>
    <g id="Trivia" stroke="none" stroke-width="1" fill="none" fill-rule="evenodd" sketch:type="MSPage">
        <g id="Assets" sketch:type="MSArtboardGroup" transform="translate(-391.000000, -25.000000)">
            <g id="neutral" sketch:type="MSLayerGroup" transform="translate(389.250000, 23.000000)">
                <g id="g10" transform="translate(23.750000, 23.750000) scale(1, -1) translate(-23.750000, -23.750000) ">
                    <g id="g12">
                        <g id="g14-Clipped">
                            <mask id="mask-2" sketch:name="path18" fill="white">
                                <use xlink:href="#path-1"></use>
                            </mask>
                            <g id="path18"></g>
                            <g id="g14" mask="url(#mask-2)">
                                <g transform="translate(2.500000, 2.500000)">
                                    <g id="g20">
                                        <path d="M42.5,21.25 C42.5,9.51375 32.98625,0 21.25,0 C9.515,0 0,9.51375 0,21.25 C0,32.985 9.515,42.5 21.25,42.5 C32.98625,42.5 42.5,32.985 42.5,21.25" id="path22" fill="#FFCC4D" sketch:type="MSShapeGroup"></path>
                                    </g>
                                    <g id="g24" transform="translate(11.250000, 11.250000)">
                                        <path d="M18.75,0 L1.25,0 C0.56,0 0,0.55875 0,1.25 C0,1.94125 0.56,2.5 1.25,2.5 L18.75,2.5 C19.44125,2.5 20,1.94125 20,1.25 C20,0.55875 19.44125,0 18.75,0" id="path26" fill="#664500" sketch:type="MSShapeGroup"></path>
                                    </g>
                                    <g id="g28" transform="translate(7.500000, 21.250000)">
                                        <path d="M10,0 L1.25,0 C0.56,0 0,0.56 0,1.25 C0,1.94 0.56,2.5 1.25,2.5 L10,2.5 C10.69,2.5 11.25,1.94 11.25,1.25 C11.25,0.56 10.69,0 10,0" id="path30" fill="#664500" sketch:type="MSShapeGroup"></path>
                                    </g>
                                    <g id="g32" transform="translate(23.750000, 21.250000)">
                                        <path d="M10,0 L1.25,0 C0.55875,0 0,0.56 0,1.25 C0,1.94 0.55875,2.5 1.25,2.5 L10,2.5 C10.69125,2.5 11.25,1.94 11.25,1.25 C11.25,0.56 10.69125,0 10,0" id="path34" fill="#664500" sketch:type="MSShapeGroup"></path>
                                    </g>
                                </g>
                            </g>
                        </g>
                    </g>
                </g>
            </g>
        </g>
    </g>
</svg>