<?xml version="1.0" encoding="UTF-8" standalone="no"?>
<svg width="46px" height="46px" viewBox="0 0 46 46" version="1.1" xmlns="http://www.w3.org/2000/svg" xmlns:xlink="http://www.w3.org/1999/xlink" xmlns:sketch="http://www.bohemiancoding.com/sketch/ns">
    <!-- Generator: Sketch 3.3.3 (12072) - http://www.bohemiancoding.com/sketch -->
    <title>Popo</title>
    <desc>Created with Sketch.</desc>
    <defs>
        <path id="path-1" d="M0,47.5 L47.5,47.5 L47.5,0 L0,0 L0,47.5 L0,47.5 Z"></path>
    </defs>
    <g id="Idea-en-General" stroke="none" stroke-width="1" fill="none" fill-rule="evenodd" sketch:type="MSPage">
        <g id="iPhone-5/5S/5C" sketch:type="MSArtboardGroup" transform="translate(-137.000000, -456.000000)">
            <g id="Popo" sketch:type="MSLayerGroup" transform="translate(136.000000, 455.000000)">
                <g id="g10" transform="translate(23.750000, 23.750000) scale(1, -1) translate(-23.750000, -23.750000) ">
                    <g id="g12">
                        <g id="g14-Clipped">
                            <mask id="mask-2" sketch:name="path18" fill="white">
                                <use xlink:href="#path-1"></use>
                            </mask>
                            <g id="path18"></g>
                            <g id="g14" mask="url(#mask-2)" sketch:type="MSShapeGroup">
                                <g id="g20" transform="translate(0.676250, 1.002250)" fill="#BF6952">
                                    <path d="M42.5,16.25 C42.955,18.2225 42.80375,20.3325 41.9275,22.4325 C41.08,24.46375 39.61875,26.07 37.83875,27.14875 C38.2375,28.64 38.1325,30.2425 37.43375,31.8375 C36.3825,34.2375 34.10875,35.83875 31.54375,36.29 C31.855,37.005 31.955,37.9 31.58875,38.99875 C30.33875,42.74875 25.33875,40.24875 21.58875,45.2475 C18.54,43.4175 17.8775,40.69875 17.9925,38.38875 C14.965,37.87375 13.2425,37.21875 13.2425,37.21875 L13.2425,37.21625 C11.54125,36.5275 10.33875,34.86125 10.33875,32.9125 C10.33875,31.81375 10.73625,30.8175 11.375,30.0225 L10.51,29.69875 L10.51125,29.695 C7.59875,28.6075 5.5425,25.975 5.5425,22.89625 C5.5425,21.58875 5.9175,20.3625 6.5675,19.29875 C3.0375,17.71375 0.57375,14.27125 0.57375,10.2475 C0.57375,4.725 5.1875,0.2475 10.87875,0.2475 C14.965,0.2475 19.0775,1.12625 22.7925,2.32875 C25.59625,1.02875 29.91125,0.2475 36.4075,0.2475 C41.47,0.2475 45.57375,4.35125 45.57375,9.41375 C45.57375,12.13375 44.3825,14.57 42.5,16.25" id="path22"></path>
                                </g>
                                <g id="g24" transform="translate(13.750000, 20.625000)" fill="#F5F8FA">
                                    <path d="M8.75,6.25 C8.75,3.14375 6.79125,0.625 4.375,0.625 C1.95875,0.625 0,3.14375 0,6.25 C0,9.35625 1.95875,11.875 4.375,11.875 C6.79125,11.875 8.75,9.35625 8.75,6.25" id="path26"></path>
                                </g>
                                <g id="g28" transform="translate(26.250000, 20.625000)" fill="#F5F8FA">
                                    <path d="M8.75,6.25 C8.75,3.14375 6.7925,0.625 4.375,0.625 C1.9575,0.625 0,3.14375 0,6.25 C0,9.35625 1.9575,11.875 4.375,11.875 C6.7925,11.875 8.75,9.35625 8.75,6.25" id="path30"></path>
                                </g>
                                <g id="g32" transform="translate(16.250000, 23.125000)" fill="#292F33">
                                    <path d="M5,3.75 C5,2.02375 3.88,0.625 2.5,0.625 C1.12,0.625 0,2.02375 0,3.75 C0,5.47625 1.12,6.875 2.5,6.875 C3.88,6.875 5,5.47625 5,3.75" id="path34"></path>
                                </g>
                                <g id="g36" transform="translate(27.500000, 23.125000)" fill="#292F33">
                                    <path d="M5,3.75 C5,2.02375 3.88,0.625 2.5,0.625 C1.12,0.625 0,2.02375 0,3.75 C0,5.47625 1.12,6.875 2.5,6.875 C3.88,6.875 5,5.47625 5,3.75" id="path38"></path>
                                </g>
                                <g id="g40" transform="translate(11.809125, 7.631875)" fill="#292F33">
                                    <path d="M1.25,7.5 C0.9425,8.115 1.25375,8.61875 1.94125,8.61875 L24.44125,8.61875 C25.12875,8.61875 25.44,8.115 25.13125,7.5 C25.13125,7.5 21.94125,1.11875 13.19125,1.11875 C4.44125,1.11875 1.25,7.5 1.25,7.5" id="path42"></path>
                                </g>
                                <g id="g44" transform="translate(16.250000, 8.750000)" fill="#F2ABBA">
                                    <path d="M8.75,5 C5.28625,5 2.30375,3.8475 0.885,2.18 C2.75,0.98625 5.31625,0 8.75,0 C12.18375,0 14.75125,0.98625 16.615,2.18 C15.19625,3.8475 12.21375,5 8.75,5" id="path46"></path>
                                </g>
                            </g>
                        </g>
                    </g>
                </g>
            </g>
        </g>
    </g>
</svg>