<?xml version="1.0" encoding="UTF-8" standalone="no"?>
<svg width="68px" height="68px" viewBox="0 0 68 68" version="1.1" xmlns="http://www.w3.org/2000/svg" xmlns:xlink="http://www.w3.org/1999/xlink" xmlns:sketch="http://www.bohemiancoding.com/sketch/ns">
    <!-- Generator: Sketch 3.3.3 (12072) - http://www.bohemiancoding.com/sketch -->
    <title>sleep</title>
    <desc>Created with Sketch.</desc>
    <defs>
        <path id="path-1" d="M0,74.21875 L74.21875,74.21875 L74.21875,0 L0,0 L0,74.21875 L0,74.21875 Z"></path>
    </defs>
    <g id="Idea-en-General" stroke="none" stroke-width="1" fill="none" fill-rule="evenodd" sketch:type="MSPage">
        <g id="Bienvenida" sketch:type="MSArtboardGroup" transform="translate(-126.000000, -371.000000)">
            <g id="sleep" sketch:type="MSLayerGroup" transform="translate(122.500000, 368.500000)">
                <g id="g10" transform="translate(37.109375, 37.109375) scale(1, -1) translate(-37.109375, -37.109375) ">
                    <g id="g12">
                        <g id="g14-Clipped">
                            <mask id="mask-2" sketch:name="path18" fill="white">
                                <use xlink:href="#path-1"></use>
                            </mask>
                            <g id="path18"></g>
                            <g id="g14" mask="url(#mask-2)">
                                <g transform="translate(3.906250, 3.906250)">
                                    <g id="g20">
                                        <path d="M66.40625,33.203125 C66.40625,14.8652344 51.5410156,0 33.203125,0 C14.8671875,0 0,14.8652344 0,33.203125 C0,51.5390625 14.8671875,66.40625 33.203125,66.40625 C51.5410156,66.40625 66.40625,51.5390625 66.40625,33.203125" id="path22" fill="#FFCC4D" sketch:type="MSShapeGroup"></path>
                                    </g>
                                    <g id="g24" transform="translate(27.343750, 11.718750)">
                                        <path d="M11.71875,5.859375 C11.71875,2.62304688 9.09570313,0 5.859375,0 C2.62304688,0 0,2.62304688 0,5.859375 C0,9.09375 2.62304688,11.71875 5.859375,11.71875 C9.09570313,11.71875 11.71875,9.09375 11.71875,5.859375" id="path26" fill="#664500" sketch:type="MSShapeGroup"></path>
                                    </g>
                                    <g id="g28" transform="translate(14.282227, 28.101953)">
                                        <path d="M17.578125,7.8125 C17.234375,8.09179688 16.7441406,8.09960938 16.3867188,7.83984375 C16.3613281,7.8203125 13.9238281,6.078125 9.15625,6.078125 C4.38867188,6.078125 1.94921875,7.8203125 1.92773438,7.8359375 C1.57226563,8.1015625 1.08007813,8.09570313 0.734375,7.81835938 C0.38671875,7.54101563 0.26953125,7.06445313 0.44921875,6.65820313 C0.568359375,6.39453125 3.37890625,0.21875 9.15625,0.21875 C14.9335938,0.21875 17.7441406,6.39453125 17.8613281,6.65820313 C18.0390625,7.0625 17.921875,7.53515625 17.578125,7.8125" id="path30" fill="#664500" sketch:type="MSShapeGroup"></path>
                                    </g>
                                    <g id="g32" transform="translate(33.813477, 28.101953)">
                                        <path d="M17.578125,7.8125 C17.234375,8.09179688 16.7460938,8.1015625 16.3867188,7.83984375 C16.3632813,7.8203125 13.9238281,6.078125 9.15625,6.078125 C4.38867188,6.078125 1.94726563,7.8203125 1.92773438,7.8359375 C1.57226563,8.1015625 1.08203125,8.09570313 0.734375,7.81835938 C0.38671875,7.54101563 0.26953125,7.06445313 0.44921875,6.65820313 C0.56640625,6.39453125 3.37890625,0.21875 9.15625,0.21875 C14.9335938,0.21875 17.7441406,6.39453125 17.8613281,6.65820313 C18.0390625,7.0625 17.9238281,7.53515625 17.578125,7.8125" id="path34" fill="#664500" sketch:type="MSShapeGroup"></path>
                                    </g>
                                    <g id="g36" transform="translate(23.434570, 48.572461)">
                                        <path d="M5.859375,9.765625 L1.94726562,9.765625 C1.10351562,9.765625 0.423828125,10.3046875 0.423828125,11.2421875 C0.423828125,12.1777344 1.10351562,12.7167969 1.94726562,12.7167969 L9.60742187,12.7167969 C9.91210937,12.7167969 10.7070312,12.578125 10.7070312,11.6640625 C10.7070312,11.21875 10.6152344,11.0078125 10.3574219,10.65625 L5.0390625,3.20703125 L9.49023437,3.20703125 C10.3339844,3.20703125 11.0117187,2.66796875 11.0117187,1.73046875 C11.0117187,0.794921875 10.3339844,0.255859375 9.49023437,0.255859375 L1.64257812,0.255859375 C0.892578125,0.255859375 0.259765625,0.630859375 0.259765625,1.40429688 C0.259765625,1.77929688 0.447265625,2.12890625 0.564453125,2.31835938 L5.859375,9.765625 L5.859375,9.765625 Z" id="path38" fill="#2A6797" sketch:type="MSShapeGroup"></path>
                                    </g>
                                    <g id="g40" transform="translate(36.136719, 52.123047)">
                                        <path d="M7.8125,11.71875 L3.2421875,11.71875 C2.2578125,11.71875 1.46484375,12.3476563 1.46484375,13.4414063 C1.46484375,14.5371094 2.2578125,15.1660156 3.2421875,15.1660156 L12.1875,15.1660156 C12.546875,15.1660156 13.4765625,15.0019531 13.4765625,13.9355469 C13.4765625,13.4160156 13.3671875,13.1699219 13.0644531,12.7578125 L6.85546875,4.05859375 L12.0546875,4.05859375 C13.0390625,4.05859375 13.8320312,3.4296875 13.8320312,2.33398438 C13.8320312,1.24023438 13.0390625,0.611328125 12.0546875,0.611328125 L2.88867187,0.611328125 C2.01171875,0.611328125 1.2734375,1.04882813 1.2734375,1.953125 C1.2734375,2.390625 1.4921875,2.80078125 1.62890625,3.01757813 L7.8125,11.71875 L7.8125,11.71875 Z" id="path42" fill="#2A6797" sketch:type="MSShapeGroup"></path>
                                    </g>
                                    <g id="g44" transform="translate(49.808594, 41.621289)">
                                        <path d="M9.765625,15.625 L3.890625,15.625 C2.625,15.625 1.60546875,16.4335938 1.60546875,17.8398438 C1.60546875,19.2460938 2.625,20.0566406 3.890625,20.0566406 L15.3925781,20.0566406 C15.8496094,20.0566406 17.0449219,19.8457031 17.0449219,18.4726563 C17.0449219,17.8066406 16.9023438,17.4882813 16.5175781,16.9609375 L8.53320313,5.77734375 L15.2167969,5.77734375 C16.4804688,5.77734375 17.5019531,4.96875 17.5019531,3.5625 C17.5019531,2.15625 16.4804688,1.34765625 15.2167969,1.34765625 L3.43359375,1.34765625 C2.30859375,1.34765625 1.359375,1.91015625 1.359375,3.0703125 C1.359375,3.6328125 1.640625,4.16015625 1.81640625,4.44140625 L9.765625,15.625 L9.765625,15.625 Z" id="path46" fill="#2A6797" sketch:type="MSShapeGroup"></path>
                                    </g>
                                </g>
                            </g>
                        </g>
                    </g>
                </g>
            </g>
        </g>
    </g>
</svg>