<?xml version="1.0" encoding="UTF-8" standalone="no"?>
<svg width="44px" height="43px" viewBox="0 0 44 43" version="1.1" xmlns="http://www.w3.org/2000/svg" xmlns:xlink="http://www.w3.org/1999/xlink" xmlns:sketch="http://www.bohemiancoding.com/sketch/ns">
    <!-- Generator: Sketch 3.3.3 (12072) - http://www.bohemiancoding.com/sketch -->
    <title>wink</title>
    <desc>Created with Sketch.</desc>
    <defs>
        <path id="path-1" d="M0,47.5 L47.5,47.5 L47.5,0 L0,0 L0,47.5 L0,47.5 Z"></path>
    </defs>
    <g id="Trivia" stroke="none" stroke-width="1" fill="none" fill-rule="evenodd" sketch:type="MSPage">
        <g id="Assets" sketch:type="MSArtboardGroup" transform="translate(-527.000000, -25.000000)">
            <g id="wink" sketch:type="MSLayerGroup" transform="translate(525.250000, 23.000000)">
                <g id="g10" transform="translate(23.750000, 23.750000) scale(1, -1) translate(-23.750000, -23.750000) ">
                    <g id="g12">
                        <g id="g14-Clipped">
                            <mask id="mask-2" sketch:name="path18" fill="white">
                                <use xlink:href="#path-1"></use>
                            </mask>
                            <g id="path18"></g>
                            <g id="g14" mask="url(#mask-2)">
                                <g transform="translate(2.500000, 2.500000)">
                                    <g id="g20">
                                        <path d="M42.5,21.25 C42.5,9.51375 32.98625,0 21.25,0 C9.515,0 0,9.51375 0,21.25 C0,32.985 9.515,42.5 21.25,42.5 C32.98625,42.5 42.5,32.985 42.5,21.25" id="path22" fill="#FFCC4D" sketch:type="MSShapeGroup"></path>
                                    </g>
                                    <g id="g24" transform="translate(10.000000, 18.125000)">
                                        <path d="M6.25,5 C6.25,2.5825 4.85125,0.625 3.125,0.625 C1.39875,0.625 0,2.5825 0,5 C0,7.41625 1.39875,9.375 3.125,9.375 C4.85125,9.375 6.25,7.41625 6.25,5" id="path26" fill="#664500" sketch:type="MSShapeGroup"></path>
                                    </g>
                                    <g id="g28" transform="translate(23.071250, 20.253875)">
                                        <path d="M11.25,1.25 C11.17625,1.41875 9.37625,5.37125 5.67875,5.37125 C1.9825,5.37125 0.1825,1.41875 0.1075,1.25 C-0.0075,0.99125 0.0675,0.68875 0.2875,0.51125 C0.50625,0.33375 0.82,0.3275 1.05125,0.49375 C1.06625,0.505 2.62875,1.62125 5.67875,1.62125 C8.71125,1.62125 10.27125,0.52 10.30625,0.495 C10.41625,0.4125 10.54875,0.37125 10.67875,0.37125 C10.81625,0.37125 10.955,0.4175 11.06875,0.5075 C11.29,0.685 11.36625,0.99 11.25,1.25" id="path30" fill="#664500" sketch:type="MSShapeGroup"></path>
                                    </g>
                                    <g id="g32" transform="translate(4.998750, 28.177500)">
                                        <path d="M1.25,0 C0.99,0 0.72625,0.08125 0.50125,0.25 C-0.05125,0.66375 -0.1625,1.4475 0.25125,2 C4.32875,7.4375 9.77125,7.5 10.00125,7.5 C10.69125,7.5 11.25125,6.94 11.25125,6.25 C11.25125,5.56125 10.695,5.0025 10.00625,5 C9.8125,4.9975 5.545,4.8925 2.25125,0.5 C2.005,0.1725 1.63,0 1.25,0" id="path34" fill="#664500" sketch:type="MSShapeGroup"></path>
                                    </g>
                                    <g id="g36" transform="translate(22.501250, 25.520625)">
                                        <path d="M12.5,0 C12.11875,0 11.74375,0.1725 11.49875,0.5 C8.25875,4.82 2.7975,3.78375 2.74375,3.775 C2.06,3.64 1.40875,4.07875 1.2725,4.755 C1.1375,5.43125 1.5775,6.09 2.25375,6.225 C2.54125,6.28375 9.325,7.565 13.49875,2 C13.91375,1.4475 13.80125,0.66375 13.24875,0.25 C13.02375,0.08125 12.76125,0 12.5,0" id="path38" fill="#664500" sketch:type="MSShapeGroup"></path>
                                    </g>
                                    <g id="g40" transform="translate(14.067375, 8.028625)">
                                        <path d="M13.75,6.25 C13.51625,6.3875 13.21,6.35875 13.00375,6.175 C12.9925,6.16625 11.7375,5.09625 7.1825,5.09625 C2.63125,5.09625 1.37625,6.16375 1.375,6.16375 C1.175,6.36375 0.86875,6.40125 0.62375,6.26625 C0.38,6.12625 0.2575,5.8425 0.32625,5.57 C0.34,5.515 1.7575,0.09625 7.1825,0.09625 C12.6075,0.09625 14.025,5.515 14.03875,5.57 C14.105,5.83625 13.98375,6.10875 13.75,6.25" id="path42" fill="#664500" sketch:type="MSShapeGroup"></path>
                                    </g>
                                </g>
                            </g>
                        </g>
                    </g>
                </g>
            </g>
        </g>
    </g>
</svg>